<?xml version="1.0" encoding="UTF-8"?>
<svg enable-background="new 0 0 511.999 511.999" version="1.1" viewBox="0 0 511.999 511.999" xml:space="preserve" xmlns="http://www.w3.org/2000/svg">
    <style>
		.icon-color {
			fill: #fff;
		}
    </style>
    <path class="icon-color" d="m208 285.214844 71.40625-61.214844-71.40625-61.214844zm0 0"/>
    <path class="icon-color" d="m224 0c-123.710938 0-224 100.289062-224 224s100.289062 224 224 224 224-100.289062 224-224c-.132812-123.65625-100.34375-223.867188-224-224zm90.414062 236.144531-112 96c-4.742187 4.066407-11.417968 5-17.097656 2.390625-5.675781-2.609375-9.316406-8.285156-9.316406-14.535156v-192c0-6.25 3.640625-11.925781 9.316406-14.535156 5.679688-2.609375 12.355469-1.675782 17.097656 2.390625l112 96c3.546876 3.039062 5.585938 7.476562 5.585938 12.144531s-2.039062 9.105469-5.585938 12.144531zm0 0"/>
</svg>
