<?xml version="1.0" encoding="iso-8859-1"?>
<!-- Generator: Adobe Illustrator 16.0.0, SVG Export Plug-In . SVG Version: 6.00 Build 0)  -->
<!DOCTYPE svg PUBLIC "-//W3C//DTD SVG 1.1//EN" "http://www.w3.org/Graphics/SVG/1.1/DTD/svg11.dtd">
<svg version="1.1" id="Capa_1" xmlns="http://www.w3.org/2000/svg" xmlns:xlink="http://www.w3.org/1999/xlink" x="0px" y="0px"
	 width="511.999px" height="511.999px" viewBox="0 0 511.999 511.999" style="enable-background:new 0 0 511.999 511.999;"
	 xml:space="preserve">
<g>
	<g id="_x31_14_8_">
		<g>
			<path d="M40.256,23.174c-1.127-2.834-4.242-4.159-7.129-3.797c-3.342,0.419-5.354,3.189-5.636,6.383
				c0.038,4.333,4.003,7.124,8.146,6.561C39.752,31.761,41.631,26.634,40.256,23.174z M36.787,26.517
				c-1.143,0.66-2.285,1.321-3.427,1.981c-0.358,0.208-0.925,0.031-0.925-0.449c0.005-1.363,0.007-2.727,0.008-4.09
				c0.002-0.129,0.045-0.233,0.102-0.321c0.117-0.262,0.388-0.428,0.697-0.271c0.017,0.005,0.025,0.011,0.037,0.015
				c0.004,0.001,0.008,0.001,0.012,0.003c0.005,0.003,0.01,0.006,0.015,0.008c0.062,0.023,0.115,0.058,0.163,0.104
				c1.081,0.667,2.16,1.332,3.24,1.998C37.056,25.707,37.211,26.271,36.787,26.517z"/>
			<path d="M33.927,16.099c0.229,0,0.457,0.019,0.684,0.034c0.032-0.226,0.057-0.453,0.069-0.682
				c-0.224-4.134-3.166-7.074-7.297-7.297c-2.425-0.13-4.445,1.107-5.742,2.917c-1.295-1.706-3.311-2.785-5.746-2.917
				c-4.123-0.222-7.09,3.5-7.295,7.297c-0.023,0.488,0.008,0.957,0.084,1.411c-0.258-0.037-0.521-0.062-0.789-0.077
				c-4.457-0.24-7.664,3.783-7.885,7.886c-0.227,4.193,3.32,7.279,7.158,7.812v0.073h19.554c-1.613-1.749-2.607-4.078-2.607-6.646
				C24.115,20.492,28.508,16.099,33.927,16.099z"/>
		</g>
	</g>
</g>
<g>
</g>
<g>
</g>
<g>
</g>
<g>
</g>
<g>
</g>
<g>
</g>
<g>
</g>
<g>
</g>
<g>
</g>
<g>
</g>
<g>
</g>
<g>
</g>
<g>
</g>
<g>
</g>
<g>
</g>
</svg>
