<?xml version="1.0" encoding="UTF-8"?>
<svg enable-background="new 0 0 511.999 511.999" version="1.1" viewBox="0 0 511.999 511.999" xml:space="preserve" xmlns="http://www.w3.org/2000/svg">
	<style>
		.icon-color {
			fill: #fff;
		}
    </style>
	<path class="icon-color" d="m443.86 196.92l-302.4-186.4c-21.878-13.469-48.329-14.029-70.758-1.498-22.429 12.529-35.819 35.35-35.819 61.041v371.11c0 38.846 31.3 70.619 69.77 70.829 0.105 0 0.21 1e-3 0.313 1e-3 12.022-1e-3 24.55-3.769 36.251-10.909 9.413-5.743 12.388-18.029 6.645-27.441-5.743-9.414-18.031-12.388-27.441-6.645-5.473 3.338-10.818 5.065-15.553 5.064-14.515-0.079-30.056-12.513-30.056-30.898v-371.11c0-11.021 5.744-20.808 15.364-26.183 9.621-5.375 20.966-5.135 30.339 0.636l302.4 186.4c9.089 5.596 14.29 14.927 14.268 25.601-0.022 10.673-5.261 19.983-14.4 25.56l-218.64 133.87c-9.404 5.758-12.36 18.049-6.602 27.452 5.757 9.404 18.048 12.36 27.452 6.602l218.61-133.85c20.931-12.769 33.457-35.029 33.507-59.55 0.05-24.518-12.386-46.83-33.255-59.678z"/>
</svg>
